<svg xmlns="http://www.w3.org/2000/svg" xmlns:xlink="http://www.w3.org/1999/xlink" viewBox="0 0 1366 741.31"><defs><style>.cls-1{fill:url(#linear-gradient);}</style><linearGradient id="linear-gradient" x1="1059.06" y1="187.02" x2="87.86" y2="633.3" gradientUnits="userSpaceOnUse"><stop offset="0" stop-color="#2b3a42"/><stop offset="1" stop-color="#3f5866"/></linearGradient></defs><title>bg</title><g id="Layer_2" data-name="Layer 2"><g id="Layer_1-2" data-name="Layer 1"><path class="cls-1" d="M6.21,708.53c65.77-.06,116,38.45,183.11,29.24,36.93-5.07,72.24-17,108.92-23.37a362.48,362.48,0,0,1,155.13,7.2c26.27,7.12,52,17.32,79.5,18.22,33.21,1.1,64.74-11.48,96.67-19.63,65.24-16.65,136.32-14.81,200.35,5.19,20.64,6.45,41,14.82,62.9,15.82,28,1.29,54.66-9.63,81.33-17.43a379.19,379.19,0,0,1,207.84-.62c25.89,7.4,51.54,17.72,78.75,17.57,36.15-.2,70.26-11.67,105.28-21.07V247s-71-111-402-112S558,0,558,0H0V708.58Q3.1,708.54,6.21,708.53Z"/></g></g></svg>